<svg width="120" height="120" viewBox="0 0 120 120" fill="none" xmlns="http://www.w3.org/2000/svg">
  <!-- 그림자 -->
  <ellipse cx="60" cy="88" rx="38" ry="8" fill="#000000" opacity="0.2"/>
  
  <!-- 그릇 -->
  <path d="M25 48L32 75C33 80 38 85 60 85C82 85 87 80 88 75L95 48H25Z" fill="#FFFFFF"/>
  <path d="M25 48L32 75C33 80 38 85 60 85C82 85 87 80 88 75L95 48H25Z" fill="url(#bowl-white-gradient)"/>
  <ellipse cx="60" cy="48" rx="35" ry="8" fill="#F8F8F8"/>
  <path d="M25 48C25 48 30 42 60 42C90 42 95 48 95 48" stroke="#E0E0E0" stroke-width="2"/>
  
  <!-- 짜장 소스 -->
  <path d="M32 52C32 52 40 48 60 48C80 48 88 52 88 52L84 70C84 74 76 78 60 78C44 78 36 74 36 70L32 52Z" fill="#2C1810"/>
  <path d="M32 52C32 52 40 48 60 48C80 48 88 52 88 52L84 70C84 74 76 78 60 78C44 78 36 74 36 70L32 52Z" fill="url(#jjajang-gradient)" opacity="0.5"/>
  <ellipse cx="60" cy="52" rx="28" ry="6" fill="#3D2415" opacity="0.8"/>
  
  <!-- 면 -->
  <path d="M35 56C35 56 45 62 60 60C75 58 85 56 85 56" stroke="#E8DCC0" stroke-width="3" stroke-linecap="round" opacity="0.9"/>
  <path d="M38 60C38 60 48 64 60 64C72 64 82 60 82 60" stroke="#E8DCC0" stroke-width="3" stroke-linecap="round" opacity="0.9"/>
  <path d="M40 64C40 64 50 66 60 66C70 66 80 64 80 64" stroke="#E8DCC0" stroke-width="2.5" stroke-linecap="round" opacity="0.8"/>
  <path d="M42 68C42 68 52 68 60 68C68 68 78 68 78 68" stroke="#E8DCC0" stroke-width="2.5" stroke-linecap="round" opacity="0.7"/>
  
  <!-- 오이 고명 -->
  <ellipse cx="55" cy="54" rx="3" ry="4" fill="#90C878" transform="rotate(-20 55 54)"/>
  <ellipse cx="65" cy="55" rx="3" ry="4" fill="#90C878" transform="rotate(15 65 55)"/>
  <path d="M54 54L56 54" stroke="#6B9B5A" stroke-width="0.5"/>
  <path d="M64 55L66 55" stroke="#6B9B5A" stroke-width="0.5"/>
  
  <!-- 젓가락 -->
  <rect x="71" y="20" width="2.5" height="45" rx="1.25" fill="#8B6F47" transform="rotate(12 72 42)"/>
  <rect x="76" y="18" width="2.5" height="45" rx="1.25" fill="#8B6F47" transform="rotate(15 77 40)"/>
  <rect x="71.5" y="20" width="1.5" height="45" rx="0.75" fill="#A68A5F" transform="rotate(12 72 42)"/>
  <rect x="76.5" y="18" width="1.5" height="45" rx="0.75" fill="#A68A5F" transform="rotate(15 77 40)"/>
  
  <defs>
    <linearGradient id="bowl-white-gradient" x1="60" y1="48" x2="60" y2="85">
      <stop offset="0%" stop-color="#FFFFFF" stop-opacity="0"/>
      <stop offset="100%" stop-color="#E0E0E0" stop-opacity="0.5"/>
    </linearGradient>
    <linearGradient id="jjajang-gradient" x1="60" y1="48" x2="60" y2="78">
      <stop offset="0%" stop-color="#3D2415"/>
      <stop offset="100%" stop-color="#1A0F08"/>
    </linearGradient>
  </defs>
</svg>
