<svg width="120" height="120" viewBox="0 0 120 120" fill="none" xmlns="http://www.w3.org/2000/svg">
<path opacity="0.2" d="M60 93C80.9868 93 98 89.866 98 86C98 82.134 80.9868 79 60 79C39.0132 79 22 82.134 22 86C22 89.866 39.0132 93 60 93Z" fill="black"/>
<path d="M60 85C79.8823 85 96 80.5228 96 75C96 69.4772 79.8823 65 60 65C40.1177 65 24 69.4772 24 75C24 80.5228 40.1177 85 60 85Z" fill="white"/>
<path d="M60 85C79.8823 85 96 80.5228 96 75C96 69.4772 79.8823 65 60 65C40.1177 65 24 69.4772 24 75C24 80.5228 40.1177 85 60 85Z" fill="url(#paint0_linear_17_208)"/>
<path d="M60 80C78.7777 80 94 76.4183 94 72C94 67.5817 78.7777 64 60 64C41.2223 64 26 67.5817 26 72C26 76.4183 41.2223 80 60 80Z" fill="#F8F8F8"/>
<path d="M26 72C26 72 32 68 60 68C88 68 94 72 94 72" stroke="#E8E8E8" stroke-width="1.5"/>
<path opacity="0.4" d="M52 62.7999C52.4418 62.7999 52.7999 62.4418 52.7999 62C52.7999 61.5581 52.4418 61.2 52 61.2C51.5581 61.2 51.2 61.5581 51.2 62C51.2 62.4418 51.5581 62.7999 52 62.7999Z" fill="#C48A1A"/>
<path d="M36.3493 76.0769C34.2951 73.4615 34.2951 69.5385 38.4035 66.9231C42.512 64.3077 50.7289 63 61 63C71.2711 63 79.488 64.3077 83.5965 66.9231C87.7049 69.5385 87.7049 73.4615 85.6507 76.0769C83.5965 78.6923 77.4338 80 67.1627 80C56.8916 80 38.4035 78.6923 36.3493 76.0769Z" fill="#D4A024"/>
<path d="M36.3493 76.0769C34.2951 73.4615 34.2951 69.5385 38.4035 66.9231C42.512 64.3077 50.7289 63 61 63C71.2711 63 79.488 64.3077 83.5965 66.9231C87.7049 69.5385 87.7049 73.4615 85.6507 76.0769C83.5965 78.6923 77.4338 80 67.1627 80C56.8916 80 38.4035 78.6923 36.3493 76.0769Z" fill="url(#paint1_radial_17_208)"/>
<path opacity="0.5" d="M40.4578 69.5385C40.4578 69.5385 46.6204 66.9231 61 66.9231C75.3796 66.9231 81.5422 69.5385 81.5422 69.5385" stroke="#E8B830" stroke-width="2" stroke-linecap="round"/>
<path opacity="0.3" d="M61 76.0769C71.2106 76.0769 79.488 73.735 79.488 70.8461C79.488 67.9573 71.2106 65.6154 61 65.6154C50.7893 65.6154 42.512 67.9573 42.512 70.8461C42.512 73.735 50.7893 76.0769 61 76.0769Z" fill="#F5C842"/>
<path opacity="0.6" d="M46.6205 71.5C47.1878 71.5 47.6476 71.2072 47.6476 70.8461C47.6476 70.485 47.1878 70.1923 46.6205 70.1923C46.0532 70.1923 45.5934 70.485 45.5934 70.8461C45.5934 71.2072 46.0532 71.5 46.6205 71.5Z" fill="#C48A1A"/>
<path opacity="0.6" d="M52.7832 74.2462C53.4639 74.2462 54.0157 73.8949 54.0157 73.4616C54.0157 73.0283 53.4639 72.677 52.7832 72.677C52.1025 72.677 51.5507 73.0283 51.5507 73.4616C51.5507 73.8949 52.1025 74.2462 52.7832 74.2462Z" fill="#C48A1A"/>
<path opacity="0.5" d="M58.9457 72.6769C59.3995 72.6769 59.7674 72.4427 59.7674 72.1538C59.7674 71.8649 59.3995 71.6307 58.9457 71.6307C58.4919 71.6307 58.124 71.8649 58.124 72.1538C58.124 72.4427 58.4919 72.6769 58.9457 72.6769Z" fill="#C48A1A"/>
<path opacity="0.6" d="M67.1627 74.1154C67.73 74.1154 68.1898 73.8227 68.1898 73.4616C68.1898 73.1005 67.73 72.8077 67.1627 72.8077C66.5955 72.8077 66.1356 73.1005 66.1356 73.4616C66.1356 73.8227 66.5955 74.1154 67.1627 74.1154Z" fill="#C48A1A"/>
<path opacity="0.5" d="M73.3254 72.2847C74.0061 72.2847 74.558 71.9334 74.558 71.5001C74.558 71.0667 74.0061 70.7155 73.3254 70.7155C72.6447 70.7155 72.0929 71.0667 72.0929 71.5001C72.0929 71.9334 72.6447 72.2847 73.3254 72.2847Z" fill="#C48A1A"/>
<path d="M50.7289 74.7692C53.5652 74.7692 55.8645 73.5983 55.8645 72.1538C55.8645 70.7094 53.5652 69.5385 50.7289 69.5385C47.8927 69.5385 45.5934 70.7094 45.5934 72.1538C45.5934 73.5983 47.8927 74.7692 50.7289 74.7692Z" fill="#E8D5A0"/>
<path d="M50.7289 74.7692C53.5652 74.7692 55.8645 73.5983 55.8645 72.1538C55.8645 70.7094 53.5652 69.5385 50.7289 69.5385C47.8927 69.5385 45.5934 70.7094 45.5934 72.1538C45.5934 73.5983 47.8927 74.7692 50.7289 74.7692Z" fill="url(#paint2_linear_17_208)"/>
<path opacity="0.6" d="M49.7017 72.0231C50.1555 72.0231 50.5234 71.7889 50.5234 71.5C50.5234 71.2111 50.1555 70.9769 49.7017 70.9769C49.2479 70.9769 48.88 71.2111 48.88 71.5C48.88 71.7889 49.2479 72.0231 49.7017 72.0231Z" fill="#F5E6B8"/>
<path d="M69.2169 76.7307C72.6204 76.7307 75.3795 75.267 75.3795 73.4615C75.3795 71.6559 72.6204 70.1923 69.2169 70.1923C65.8133 70.1923 63.0542 71.6559 63.0542 73.4615C63.0542 75.267 65.8133 76.7307 69.2169 76.7307Z" fill="#E8D5A0"/>
<path d="M69.2169 76.7307C72.6204 76.7307 75.3795 75.267 75.3795 73.4615C75.3795 71.6559 72.6204 70.1923 69.2169 70.1923C65.8133 70.1923 63.0542 71.6559 63.0542 73.4615C63.0542 75.267 65.8133 76.7307 69.2169 76.7307Z" fill="url(#paint3_linear_17_208)"/>
<path opacity="0.6" d="M68.1897 73.3307C68.6435 73.3307 69.0114 73.0965 69.0114 72.8076C69.0114 72.5187 68.6435 72.2845 68.1897 72.2845C67.7359 72.2845 67.368 72.5187 67.368 72.8076C67.368 73.0965 67.7359 73.3307 68.1897 73.3307Z" fill="#F5E6B8"/>
<path d="M56.0134 76.3053C57.6126 76.6759 59.3021 76.2885 59.7872 75.4402C60.2722 74.5919 59.369 73.6038 57.7699 73.2333C56.1708 72.8627 54.4812 73.2501 53.9962 74.0984C53.5111 74.9467 54.4143 75.9348 56.0134 76.3053Z" fill="#FF8C42"/>
<path d="M76.0442 76.3481C77.688 76.0678 78.723 75.1336 78.3559 74.2615C77.9889 73.3895 76.3588 72.9099 74.715 73.1903C73.0712 73.4707 72.0362 74.4049 72.4032 75.2769C72.7703 76.1489 74.4004 76.6285 76.0442 76.3481Z" fill="#FF8C42"/>
<path opacity="0.7" d="M63.0542 71.5C65.3233 71.5 67.1627 70.6218 67.1627 69.5384C67.1627 68.4551 65.3233 67.5769 63.0542 67.5769C60.7852 67.5769 58.9458 68.4551 58.9458 69.5384C58.9458 70.6218 60.7852 71.5 63.0542 71.5Z" fill="#A0522D"/>
<path opacity="0.6" d="M61 69.5385H65.1084" stroke="#8B4513" stroke-width="0.5"/>
<path opacity="0.8" d="M58.9458 65.6154C58.9458 65.6154 61 64.3077 63.0542 65.6154L61 67.5769L58.9458 65.6154Z" fill="#7CB958"/>
<path d="M58.9458 65.6154H63.0542" stroke="#5A8A48" stroke-width="0.5"/>
<path d="M61 65.6154V63" stroke="#5A8A48"/>
<path opacity="0.6" d="M71.2711 70.8461C72.4057 70.8461 73.3254 70.2606 73.3254 69.5384C73.3254 68.8162 72.4057 68.2307 71.2711 68.2307C70.1366 68.2307 69.2169 68.8162 69.2169 69.5384C69.2169 70.2606 70.1366 70.8461 71.2711 70.8461Z" fill="#8B4513"/>
<path d="M69.7305 69.5385H72.8118" stroke="#6B3410" stroke-width="0.5"/>
<path d="M71.2711 68.5577V70.5193" stroke="#6B3410" stroke-width="0.5"/>
<path d="M40.7651 77.1793C46.0997 75.7499 49.7291 71.9964 48.8714 68.7956C48.0138 65.5948 42.9939 64.1588 37.6593 65.5882C32.3246 67.0176 28.6953 70.7711 29.5529 73.9719C30.4106 77.1727 35.4304 78.6087 40.7651 77.1793Z" fill="url(#paint4_radial_17_208)"/>
<path opacity="0.5" d="M37.6004 71.8327C38.6673 71.5468 39.3584 70.6663 39.144 69.8661C38.9296 69.0659 37.8909 68.649 36.8239 68.9349C35.757 69.2208 35.0659 70.1012 35.2803 70.9014C35.4947 71.7016 36.5335 72.1185 37.6004 71.8327Z" fill="#D4A574"/>
<path opacity="0.4" d="M41.4709 73.3498C42.2711 73.1354 42.8039 72.5291 42.661 71.9956C42.518 71.4622 41.7535 71.2035 40.9533 71.4179C40.1531 71.6323 39.6203 72.2386 39.7632 72.7721C39.9062 73.3055 40.6707 73.5642 41.4709 73.3498Z" fill="#D4A574"/>
<path opacity="0.4" d="M39.4192 70.1565C39.9527 70.0136 40.2924 69.5518 40.1781 69.125C40.0637 68.6982 39.5386 68.4681 39.0051 68.6111C38.4716 68.754 38.1319 69.2158 38.2462 69.6426C38.3606 70.0694 38.8858 70.2995 39.4192 70.1565Z" fill="#D4A574"/>
<path d="M79.5 78C86.9558 78 93 73.9706 93 69C93 64.0294 86.9558 60 79.5 60C72.0442 60 66 64.0294 66 69C66 73.9706 72.0442 78 79.5 78Z" fill="url(#paint5_linear_17_208)"/>
<path opacity="0.8" d="M75.0001 67.2001C75.7457 67.2001 76.3501 66.8547 76.3501 66.4287C76.3501 66.0026 75.7457 65.6572 75.0001 65.6572C74.2546 65.6572 73.6501 66.0026 73.6501 66.4287C73.6501 66.8547 74.2546 67.2001 75.0001 67.2001Z" fill="#FFF9F0"/>
<path opacity="0.8" d="M79.5 68.4857C80.2456 68.4857 80.85 68.1403 80.85 67.7143C80.85 67.2883 80.2456 66.9429 79.5 66.9429C78.7544 66.9429 78.15 67.2883 78.15 67.7143C78.15 68.1403 78.7544 68.4857 79.5 68.4857Z" fill="#FFF9F0"/>
<path opacity="0.8" d="M84 67.7143C84.6213 67.7143 85.125 67.4265 85.125 67.0714C85.125 66.7164 84.6213 66.4286 84 66.4286C83.3787 66.4286 82.875 66.7164 82.875 67.0714C82.875 67.4265 83.3787 67.7143 84 67.7143Z" fill="#FFF9F0"/>
<path opacity="0.7" d="M77.25 69.6429C77.8713 69.6429 78.375 69.3551 78.375 69C78.375 68.645 77.8713 68.3572 77.25 68.3572C76.6287 68.3572 76.125 68.645 76.125 69C76.125 69.3551 76.6287 69.6429 77.25 69.6429Z" fill="#FFF9F0"/>
<path opacity="0.8" d="M81.7501 70.4143C82.4957 70.4143 83.1001 70.0689 83.1001 69.6429C83.1001 69.2168 82.4957 68.8715 81.7501 68.8715C81.0046 68.8715 80.4001 69.2168 80.4001 69.6429C80.4001 70.0689 81.0046 70.4143 81.7501 70.4143Z" fill="#FFF9F0"/>
<path opacity="0.7" d="M79.5 72.2143C80.1213 72.2143 80.625 71.9265 80.625 71.5714C80.625 71.2164 80.1213 70.9286 79.5 70.9286C78.8787 70.9286 78.375 71.2164 78.375 71.5714C78.375 71.9265 78.8787 72.2143 79.5 72.2143Z" fill="#FFF9F0"/>
<path opacity="0.7" d="M84 70.9285C84.6213 70.9285 85.125 70.6407 85.125 70.2857C85.125 69.9306 84.6213 69.6428 84 69.6428C83.3787 69.6428 82.875 69.9306 82.875 70.2857C82.875 70.6407 83.3787 70.9285 84 70.9285Z" fill="#FFF9F0"/>
<path opacity="0.6" d="M66 69C66 69 68.25 63.8571 79.5 62.5714C90.75 63.8571 93 69 93 69" stroke="#F5F0E8" stroke-width="1.5"/>
<defs>
<linearGradient id="paint0_linear_17_208" x1="4344" y1="1365" x2="4344" y2="1765" gradientUnits="userSpaceOnUse">
<stop stop-color="white"/>
<stop offset="1" stop-color="#E0E0E0"/>
</linearGradient>
<radialGradient id="paint1_radial_17_208" cx="0" cy="0" r="1" gradientUnits="userSpaceOnUse" gradientTransform="translate(2947 947) scale(26 8.5)">
<stop stop-color="#E8B830"/>
<stop offset="0.5" stop-color="#D4A024"/>
<stop offset="1" stop-color="#C48A1A"/>
</radialGradient>
<linearGradient id="paint2_linear_17_208" x1="45.5934" y1="69.5385" x2="45.5934" y2="74.7692" gradientUnits="userSpaceOnUse">
<stop stop-color="#F5E6B8"/>
<stop offset="1" stop-color="#D4C49A"/>
</linearGradient>
<linearGradient id="paint3_linear_17_208" x1="63.0542" y1="70.1923" x2="63.0542" y2="76.7307" gradientUnits="userSpaceOnUse">
<stop stop-color="#F5E6B8"/>
<stop offset="1" stop-color="#D4C49A"/>
</linearGradient>
<radialGradient id="paint4_radial_17_208" cx="0" cy="0" r="1" gradientUnits="userSpaceOnUse" gradientTransform="translate(985.723 706.034) rotate(-15) scale(10 6)">
<stop stop-color="white"/>
<stop offset="0.6" stop-color="#F5E6C8"/>
<stop offset="1" stop-color="#E8D5B0"/>
</radialGradient>
<linearGradient id="paint5_linear_17_208" x1="2118" y1="924" x2="2118" y2="1428" gradientUnits="userSpaceOnUse">
<stop stop-color="white"/>
<stop offset="0.5" stop-color="#FFF9F0"/>
<stop offset="1" stop-color="#F5EBD8"/>
</linearGradient>
</defs>
</svg>
