<svg width="120" height="120" viewBox="0 0 120 120" fill="none" xmlns="http://www.w3.org/2000/svg">
  <!-- 그림자 -->
  <ellipse cx="60" cy="88" rx="35" ry="6" fill="#000000" opacity="0.2"/>
  
  <!-- 접시 -->
  <ellipse cx="60" cy="75" rx="33" ry="9" fill="#FFFFFF"/>
  <ellipse cx="60" cy="75" rx="33" ry="9" fill="url(#plate-gradient)"/>
  <ellipse cx="60" cy="72" rx="31" ry="7" fill="#F8F8F8"/>
  <path d="M29 72C29 72 35 68 60 68C85 68 91 72 91 72" stroke="#E8E8E8" stroke-width="1.5"/>
  
  <!-- 접시 테두리 -->
  <path d="M27 75C27 75 29 69 60 69C91 69 93 75 93 75" stroke="#D0D0D0" stroke-width="1" fill="none" opacity="0.5"/>
  
  <!-- 클로슈 (음식 덮개) -->
  <path d="M35 60C35 60 38 35 60 35C82 35 85 60 85 60L35 60Z" fill="#E0E0E0"/>
  <path d="M35 60C35 60 38 35 60 35C82 35 85 60 85 60L35 60Z" fill="url(#cloche-gradient)"/>
  
  <!-- 클로슈 하이라이트 -->
  <path d="M40 55C40 55 42 40 60 40C78 40 80 55 80 55" stroke="#F5F5F5" stroke-width="2" opacity="0.6" stroke-linecap="round"/>
  <path d="M45 50C45 50 48 42 60 42C72 42 75 50 75 50" stroke="#FFFFFF" stroke-width="1.5" opacity="0.4" stroke-linecap="round"/>
  
  <!-- 클로슈 손잡이 -->
  <ellipse cx="60" cy="35" rx="5" ry="3" fill="#C0C0C0"/>
  <ellipse cx="60" cy="35" rx="5" ry="3" fill="url(#handle-gradient)"/>
  <path d="M58 32L58 35L62 35L62 32C62 30 58 30 58 32Z" fill="#D0D0D0"/>
  <path d="M58 32L58 35L62 35L62 32C62 30 58 30 58 32Z" fill="url(#handle-top-gradient)"/>
  <ellipse cx="60" cy="32" rx="2" ry="1.5" fill="#E8E8E8"/>
  
  <!-- 클로슈 베이스 림 -->
  <ellipse cx="60" cy="60" rx="25" ry="3" fill="#C0C0C0"/>
  <ellipse cx="60" cy="60" rx="25" ry="3" fill="url(#rim-gradient)"/>
  <ellipse cx="60" cy="59" rx="23" ry="2" fill="#E0E0E0" opacity="0.7"/>
  
  <!-- 포크 (왼쪽) -->
  <rect x="20" y="45" width="3.5" height="35" rx="1.75" fill="#C0C0C0"/>
  <rect x="20" y="45" width="3.5" height="35" rx="1.75" fill="url(#fork-gradient)"/>
  
  <!-- 포크 갈래 -->
  <rect x="16.5" y="40" width="2.5" height="12" rx="1.25" fill="#C0C0C0"/>
  <rect x="21" y="40" width="2.5" height="12" rx="1.25" fill="#C0C0C0"/>
  <rect x="25.5" y="40" width="2.5" height="12" rx="1.25" fill="#C0C0C0"/>
  
  <rect x="17" y="40" width="1.5" height="12" rx="0.75" fill="#E0E0E0"/>
  <rect x="21.5" y="40" width="1.5" height="12" rx="0.75" fill="#E0E0E0"/>
  <rect x="26" y="40" width="1.5" height="12" rx="0.75" fill="#E0E0E0"/>
  
  <!-- 나이프 (오른쪽) -->
  <rect x="96.5" y="45" width="3.5" height="37" rx="1.75" fill="#C0C0C0"/>
  <rect x="96.5" y="45" width="3.5" height="37" rx="1.75" fill="url(#knife-gradient)"/>
  
  <!-- 나이프 날 -->
  <path d="M94 40L103 40L103 47L94 50Z" fill="#D0D0D0"/>
  <path d="M94 40L103 40L103 47L94 50Z" fill="url(#blade-gradient)"/>
  <line x1="98.5" y1="41" x2="98.5" y2="49" stroke="#F0F0F0" stroke-width="1" opacity="0.6"/>
  <line x1="100" y1="41.5" x2="100" y2="48" stroke="#FFFFFF" stroke-width="0.5" opacity="0.4"/>
  
  <!-- 반짝임 효과 -->
  <circle cx="55" cy="45" r="2" fill="#FFFFFF" opacity="0.5"/>
  <circle cx="65" cy="42" r="1.5" fill="#FFFFFF" opacity="0.4"/>
  <circle cx="60" cy="50" r="2.5" fill="#FFFFFF" opacity="0.3"/>
  <circle cx="70" cy="48" r="1.5" fill="#FFFFFF" opacity="0.4"/>
  
  <!-- 스팀 (증기) -->
  <path d="M50 32C50 32 48 28 48 25C48 22 50 20 50 20" stroke="#E0E0E0" stroke-width="2" stroke-linecap="round" opacity="0.4"/>
  <path d="M60 30C60 30 58 26 58 23C58 20 60 18 60 18" stroke="#E0E0E0" stroke-width="2" stroke-linecap="round" opacity="0.5"/>
  <path d="M70 32C70 32 72 28 72 25C72 22 70 20 70 20" stroke="#E0E0E0" stroke-width="2" stroke-linecap="round" opacity="0.4"/>
  
  <defs>
    <linearGradient id="plate-gradient" x1="60" y1="66" x2="60" y2="84">
      <stop offset="0%" stop-color="#FFFFFF"/>
      <stop offset="100%" stop-color="#E0E0E0"/>
    </linearGradient>
    <linearGradient id="cloche-gradient" x1="60" y1="35" x2="60" y2="60">
      <stop offset="0%" stop-color="#F5F5F5"/>
      <stop offset="50%" stop-color="#E0E0E0"/>
      <stop offset="100%" stop-color="#C0C0C0"/>
    </linearGradient>
    <radialGradient id="handle-gradient" cx="60" cy="35">
      <stop offset="0%" stop-color="#E0E0E0"/>
      <stop offset="100%" stop-color="#A0A0A0"/>
    </radialGradient>
    <linearGradient id="handle-top-gradient" x1="60" y1="30" x2="60" y2="35">
      <stop offset="0%" stop-color="#E8E8E8"/>
      <stop offset="100%" stop-color="#C0C0C0"/>
    </linearGradient>
    <linearGradient id="rim-gradient" x1="60" y1="57" x2="60" y2="63">
      <stop offset="0%" stop-color="#D0D0D0"/>
      <stop offset="50%" stop-color="#B0B0B0"/>
      <stop offset="100%" stop-color="#D0D0D0"/>
    </linearGradient>
    <linearGradient id="fork-gradient" x1="21.75" y1="45" x2="21.75" y2="80">
      <stop offset="0%" stop-color="#E8E8E8"/>
      <stop offset="50%" stop-color="#B0B0B0"/>
      <stop offset="100%" stop-color="#D0D0D0"/>
    </linearGradient>
    <linearGradient id="knife-gradient" x1="98.25" y1="45" x2="98.25" y2="82">
      <stop offset="0%" stop-color="#E8E8E8"/>
      <stop offset="50%" stop-color="#B0B0B0"/>
      <stop offset="100%" stop-color="#D0D0D0"/>
    </linearGradient>
    <linearGradient id="blade-gradient" x1="94" y1="45" x2="103" y2="45">
      <stop offset="0%" stop-color="#B0B0B0"/>
      <stop offset="50%" stop-color="#F0F0F0"/>
      <stop offset="100%" stop-color="#B0B0B0"/>
    </linearGradient>
  </defs>
</svg>
