<svg width="120" height="120" viewBox="0 0 120 120" fill="none" xmlns="http://www.w3.org/2000/svg">
<path opacity="0.2" d="M60 93C75.464 93 88 90.7614 88 88C88 85.2386 75.464 83 60 83C44.536 83 32 85.2386 32 88C32 90.7614 44.536 93 60 93Z" fill="black"/>
<path d="M38 52L35 78C35 82 43 86 60 86C77 86 85 82 85 78L82 52H38Z" fill="white"/>
<path d="M38 52L35 78C35 82 43 86 60 86C77 86 85 82 85 78L82 52H38Z" fill="url(#paint0_linear_17_78)"/>
<path d="M60 57C72.1503 57 82 54.7614 82 52C82 49.2386 72.1503 47 60 47C47.8497 47 38 49.2386 38 52C38 54.7614 47.8497 57 60 57Z" fill="#F8F8F8"/>
<path d="M60 57C72.1503 57 82 54.7614 82 52C82 49.2386 72.1503 47 60 47C47.8497 47 38 49.2386 38 52C38 54.7614 47.8497 57 60 57Z" stroke="#E0E0E0" stroke-width="1.5"/>
<path d="M38 52C38 52 42 48 60 48C78 48 82 52 82 52" stroke="#F0F0F0"/>
<path d="M40 62L39 68" stroke="#E8E8E8" stroke-width="1.5"/>
<path d="M80 62L81 68" stroke="#E8E8E8" stroke-width="1.5"/>
<path opacity="0.6" d="M60 58C71.0457 58 80 56.2091 80 54C80 51.7909 71.0457 50 60 50C48.9543 50 40 51.7909 40 54C40 56.2091 48.9543 58 60 58Z" fill="#D4A574"/>
<path d="M40 54L38 72C38 75 45 78 60 78C75 78 82 75 82 72L80 54" fill="#E8C896"/>
<path d="M40 54L38 72C38 75 45 78 60 78C75 78 82 75 82 72L80 54" fill="url(#paint1_linear_17_78)"/>
<path opacity="0.8" d="M54 56C54 56 52 58 52 60C52 62 54 64 56 64C57 64 58 63 58 62L60 56L62 62C62 63 63 64 64 64C66 64 68 62 68 60C68 58 66 56 66 56C66 56 63 58 60 62C57 58 54 56 54 56Z" fill="white"/>
<path d="M52 52C55.3137 52 58 49.3137 58 46C58 42.6863 55.3137 40 52 40C48.6863 40 46 42.6863 46 46C46 49.3137 48.6863 52 52 52Z" fill="#FFFEF5"/>
<path d="M52 52C55.3137 52 58 49.3137 58 46C58 42.6863 55.3137 40 52 40C48.6863 40 46 42.6863 46 46C46 49.3137 48.6863 52 52 52Z" fill="url(#paint2_radial_17_78)"/>
<path d="M60 49C63.866 49 67 45.866 67 42C67 38.134 63.866 35 60 35C56.134 35 53 38.134 53 42C53 45.866 56.134 49 60 49Z" fill="#FFFEF5"/>
<path d="M60 49C63.866 49 67 45.866 67 42C67 38.134 63.866 35 60 35C56.134 35 53 38.134 53 42C53 45.866 56.134 49 60 49Z" fill="url(#paint3_radial_17_78)"/>
<path d="M68 52C71.3137 52 74 49.3137 74 46C74 42.6863 71.3137 40 68 40C64.6863 40 62 42.6863 62 46C62 49.3137 64.6863 52 68 52Z" fill="#FFFEF5"/>
<path d="M68 52C71.3137 52 74 49.3137 74 46C74 42.6863 71.3137 40 68 40C64.6863 40 62 42.6863 62 46C62 49.3137 64.6863 52 68 52Z" fill="url(#paint4_radial_17_78)"/>
<path d="M56 45C58.7614 45 61 42.7614 61 40C61 37.2386 58.7614 35 56 35C53.2386 35 51 37.2386 51 40C51 42.7614 53.2386 45 56 45Z" fill="#FFFEF5"/>
<path d="M56 45C58.7614 45 61 42.7614 61 40C61 37.2386 58.7614 35 56 35C53.2386 35 51 37.2386 51 40C51 42.7614 53.2386 45 56 45Z" fill="url(#paint5_radial_17_78)"/>
<path d="M64 45C66.7614 45 69 42.7614 69 40C69 37.2386 66.7614 35 64 35C61.2386 35 59 37.2386 59 40C59 42.7614 61.2386 45 64 45Z" fill="#FFFEF5"/>
<path d="M64 45C66.7614 45 69 42.7614 69 40C69 37.2386 66.7614 35 64 35C61.2386 35 59 37.2386 59 40C59 42.7614 61.2386 45 64 45Z" fill="url(#paint6_radial_17_78)"/>
<path opacity="0.6" d="M58 42C59.1046 42 60 41.1046 60 40C60 38.8954 59.1046 38 58 38C56.8954 38 56 38.8954 56 40C56 41.1046 56.8954 42 58 42Z" fill="white"/>
<path opacity="0.6" d="M62 43C63.1046 43 64 42.1046 64 41C64 39.8954 63.1046 39 62 39C60.8954 39 60 39.8954 60 41C60 42.1046 60.8954 43 62 43Z" fill="white"/>
<path opacity="0.5" d="M60 39.5C60.8284 39.5 61.5 38.8284 61.5 38C61.5 37.1716 60.8284 36.5 60 36.5C59.1716 36.5 58.5 37.1716 58.5 38C58.5 38.8284 59.1716 39.5 60 39.5Z" fill="white"/>
<path opacity="0.7" d="M54 44C54 44 56 46 58 44" stroke="#6B4423" stroke-width="1.5" stroke-linecap="round"/>
<path opacity="0.7" d="M62 44C62 44 64 46 66 44" stroke="#6B4423" stroke-width="1.5" stroke-linecap="round"/>
<path opacity="0.8" d="M78 28C78 26.8954 77.1046 26 76 26C74.8954 26 74 26.8954 74 28V60C74 61.1046 74.8954 62 76 62C77.1046 62 78 61.1046 78 60V28Z" fill="#FF6B9D"/>
<path d="M78 28C78 26.8954 77.1046 26 76 26C74.8954 26 74 26.8954 74 28V60C74 61.1046 74.8954 62 76 62C77.1046 62 78 61.1046 78 60V28Z" fill="url(#paint7_linear_17_78)"/>
<path opacity="0.8" d="M76 26C76 26 78 20 80 20C82 20 84 22 84 24" stroke="#FF6B9D" stroke-width="4" stroke-linecap="round"/>
<path d="M76 26C76 26 78 20 80 20C82 20 84 22 84 24" stroke="url(#paint8_linear_17_78)" stroke-width="4" stroke-linecap="round"/>
<path opacity="0.3" d="M78 30H74V32H78V30Z" fill="white"/>
<path opacity="0.3" d="M78 36H74V38H78V36Z" fill="white"/>
<path opacity="0.3" d="M78 42H74V44H78V42Z" fill="white"/>
<path opacity="0.3" d="M78 48H74V50H78V48Z" fill="white"/>
<path opacity="0.3" d="M78 54H74V56H78V54Z" fill="white"/>
<path d="M60 39.5C61.933 39.5 63.5 37.933 63.5 36C63.5 34.067 61.933 32.5 60 32.5C58.067 32.5 56.5 34.067 56.5 36C56.5 37.933 58.067 39.5 60 39.5Z" fill="#DC143C"/>
<path d="M60 39.5C61.933 39.5 63.5 37.933 63.5 36C63.5 34.067 61.933 32.5 60 32.5C58.067 32.5 56.5 34.067 56.5 36C56.5 37.933 58.067 39.5 60 39.5Z" fill="url(#paint9_radial_17_78)"/>
<path opacity="0.7" d="M59 36.2001C59.6628 36.2001 60.2001 35.6628 60.2001 35C60.2001 34.3373 59.6628 33.8 59 33.8C58.3373 33.8 57.8 34.3373 57.8 35C57.8 35.6628 58.3373 36.2001 59 36.2001Z" fill="#FF5A7A"/>
<path d="M60 32C60 32 61 28 62 28" stroke="#8B4513" stroke-width="1.5" stroke-linecap="round"/>
<path opacity="0.5" d="M80 64H40V72H80V64Z" fill="#E8E8E8"/>
<path opacity="0.5" d="M80 64H40V72H80V64Z" fill="url(#paint10_linear_17_78)"/>
<path opacity="0.3" d="M78 66H42V70H78V66Z" fill="#D0D0D0"/>
<defs>
<linearGradient id="paint0_linear_17_78" x1="3035" y1="1820" x2="3035" y2="2976" gradientUnits="userSpaceOnUse">
<stop stop-color="white" stop-opacity="0.8"/>
<stop offset="1" stop-color="#F0F0F0"/>
</linearGradient>
<linearGradient id="paint1_linear_17_78" x1="2678" y1="1350" x2="2678" y2="1926" gradientUnits="userSpaceOnUse">
<stop stop-color="#F5DBA3"/>
<stop offset="0.5" stop-color="#E8C896"/>
<stop offset="1" stop-color="#D4A574"/>
</linearGradient>
<radialGradient id="paint2_radial_17_78" cx="0" cy="0" r="1" gradientUnits="userSpaceOnUse" gradientTransform="translate(646 520) scale(6)">
<stop stop-color="white"/>
<stop offset="0.7" stop-color="#FFFEF5"/>
<stop offset="1" stop-color="#F5F5E8"/>
</radialGradient>
<radialGradient id="paint3_radial_17_78" cx="0" cy="0" r="1" gradientUnits="userSpaceOnUse" gradientTransform="translate(753 595) scale(7)">
<stop stop-color="white"/>
<stop offset="0.7" stop-color="#FFFEF5"/>
<stop offset="1" stop-color="#F5F5E8"/>
</radialGradient>
<radialGradient id="paint4_radial_17_78" cx="0" cy="0" r="1" gradientUnits="userSpaceOnUse" gradientTransform="translate(662 520) scale(6)">
<stop stop-color="white"/>
<stop offset="0.7" stop-color="#FFFEF5"/>
<stop offset="1" stop-color="#F5F5E8"/>
</radialGradient>
<radialGradient id="paint5_radial_17_78" cx="0" cy="0" r="1" gradientUnits="userSpaceOnUse" gradientTransform="translate(551 435) scale(5)">
<stop stop-color="white"/>
<stop offset="0.7" stop-color="#FFFEF5"/>
<stop offset="1" stop-color="#F5F5E8"/>
</radialGradient>
<radialGradient id="paint6_radial_17_78" cx="0" cy="0" r="1" gradientUnits="userSpaceOnUse" gradientTransform="translate(559 435) scale(5)">
<stop stop-color="white"/>
<stop offset="0.7" stop-color="#FFFEF5"/>
<stop offset="1" stop-color="#F5F5E8"/>
</radialGradient>
<linearGradient id="paint7_linear_17_78" x1="378" y1="962" x2="378" y2="2258" gradientUnits="userSpaceOnUse">
<stop stop-color="#FF8FB8"/>
<stop offset="0.5" stop-color="#FF6B9D"/>
<stop offset="1" stop-color="#E85A8A"/>
</linearGradient>
<linearGradient id="paint8_linear_17_78" x1="684" y1="176" x2="734" y2="126" gradientUnits="userSpaceOnUse">
<stop stop-color="#FF8FB8"/>
<stop offset="1" stop-color="#FF6B9D"/>
</linearGradient>
<radialGradient id="paint9_radial_17_78" cx="0" cy="0" r="1" gradientUnits="userSpaceOnUse" gradientTransform="translate(469.5 277.5) scale(3.5)">
<stop stop-color="#FF5A7A"/>
<stop offset="0.6" stop-color="#DC143C"/>
<stop offset="1" stop-color="#B8112A"/>
</radialGradient>
<linearGradient id="paint10_linear_17_78" x1="2440" y1="576" x2="2440" y2="640" gradientUnits="userSpaceOnUse">
<stop stop-color="#F0F0F0"/>
<stop offset="1" stop-color="#C0C0C0"/>
</linearGradient>
</defs>
</svg>
