<svg width="120" height="120" viewBox="0 0 120 120" fill="none" xmlns="http://www.w3.org/2000/svg">
  <!-- 그림자 -->
  <ellipse cx="60" cy="88" rx="28" ry="5" fill="#000000" opacity="0.2"/>
  
  <!-- 컵 하단 -->
  <path d="M38 52L35 78C35 82 43 86 60 86C77 86 85 82 85 78L82 52H38Z" fill="#FFFFFF"/>
  <path d="M38 52L35 78C35 82 43 86 60 86C77 86 85 82 85 78L82 52H38Z" fill="url(#cup-gradient)"/>
  <ellipse cx="60" cy="52" rx="22" ry="5" fill="#F8F8F8"/>
  
  <!-- 컵 테두리 -->
  <ellipse cx="60" cy="52" rx="22" ry="5" stroke="#E0E0E0" stroke-width="1.5" fill="none"/>
  <path d="M38 52C38 52 42 48 60 48C78 48 82 52 82 52" stroke="#F0F0F0" stroke-width="1"/>
  
  <!-- 컵 디자인 라인 -->
  <path d="M40 62L39 68" stroke="#E8E8E8" stroke-width="1.5"/>
  <path d="M80 62L81 68" stroke="#E8E8E8" stroke-width="1.5"/>
  
  <!-- 음료 (카페라떼) -->
  <ellipse cx="60" cy="54" rx="20" ry="4" fill="#D4A574" opacity="0.6"/>
  <path d="M40 54L38 72C38 75 45 78 60 78C75 78 82 75 82 72L80 54" fill="#E8C896"/>
  <path d="M40 54L38 72C38 75 45 78 60 78C75 78 82 75 82 72L80 54" fill="url(#latte-gradient)"/>
  
  <!-- 라떼 아트 (하트) -->
  <path d="M54 56C54 56 52 58 52 60C52 62 54 64 56 64C57 64 58 63 58 62L60 56L62 62C62 63 63 64 64 64C66 64 68 62 68 60C68 58 66 56 66 56C66 56 63 58 60 62C57 58 54 56 54 56Z" 
        fill="#FFFFFF" opacity="0.8"/>
  
  <!-- 휘핑크림 토핑 -->
  <circle cx="52" cy="46" r="6" fill="#FFFEF5"/>
  <circle cx="52" cy="46" r="6" fill="url(#cream-gradient)"/>
  
  <circle cx="60" cy="42" r="7" fill="#FFFEF5"/>
  <circle cx="60" cy="42" r="7" fill="url(#cream-gradient)"/>
  
  <circle cx="68" cy="46" r="6" fill="#FFFEF5"/>
  <circle cx="68" cy="46" r="6" fill="url(#cream-gradient)"/>
  
  <circle cx="56" cy="40" r="5" fill="#FFFEF5"/>
  <circle cx="56" cy="40" r="5" fill="url(#cream-gradient)"/>
  
  <circle cx="64" cy="40" r="5" fill="#FFFEF5"/>
  <circle cx="64" cy="40" r="5" fill="url(#cream-gradient)"/>
  
  <!-- 크림 하이라이트 -->
  <circle cx="58" cy="40" r="2" fill="#FFFFFF" opacity="0.6"/>
  <circle cx="62" cy="41" r="2" fill="#FFFFFF" opacity="0.6"/>
  <circle cx="60" cy="38" r="1.5" fill="#FFFFFF" opacity="0.5"/>
  
  <!-- 초콜릿 시럽 -->
  <path d="M54 44C54 44 56 46 58 44" stroke="#6B4423" stroke-width="1.5" stroke-linecap="round" opacity="0.7"/>
  <path d="M62 44C62 44 64 46 66 44" stroke="#6B4423" stroke-width="1.5" stroke-linecap="round" opacity="0.7"/>
  <path d="M58 42C58 42 60 40 62 42" stroke="#6B4423" stroke-width="1.5" stroke-linecap="round" opacity="0.7"/>
  
  <!-- 빨대 -->
  <rect x="74" y="26" width="4" height="36" rx="2" fill="#FF6B9D" opacity="0.8"/>
  <rect x="74" y="26" width="4" height="36" rx="2" fill="url(#straw-gradient)"/>
  
  <!-- 빨대 굽은 부분 -->
  <path d="M76 26C76 26 78 20 80 20C82 20 84 22 84 24" stroke="#FF6B9D" stroke-width="4" stroke-linecap="round" opacity="0.8"/>
  <path d="M76 26C76 26 78 20 80 20C82 20 84 22 84 24" stroke="url(#straw-bend-gradient)" stroke-width="4" stroke-linecap="round"/>
  
  <!-- 빨대 스트라이프 -->
  <rect x="74" y="30" width="4" height="2" fill="#FFFFFF" opacity="0.3"/>
  <rect x="74" y="36" width="4" height="2" fill="#FFFFFF" opacity="0.3"/>
  <rect x="74" y="42" width="4" height="2" fill="#FFFFFF" opacity="0.3"/>
  <rect x="74" y="48" width="4" height="2" fill="#FFFFFF" opacity="0.3"/>
  <rect x="74" y="54" width="4" height="2" fill="#FFFFFF" opacity="0.3"/>
  
  <!-- 체리 -->
  <circle cx="60" cy="36" r="3.5" fill="#DC143C"/>
  <circle cx="60" cy="36" r="3.5" fill="url(#cherry-gradient)"/>
  <circle cx="59" cy="35" r="1.2" fill="#FF5A7A" opacity="0.7"/>
  
  <!-- 체리 줄기 -->
  <path d="M60 32C60 32 61 28 62 28" stroke="#8B4513" stroke-width="1.5" stroke-linecap="round"/>
  
  <!-- 컵 슬리브 -->
  <rect x="40" y="64" width="40" height="8" fill="#E8E8E8" opacity="0.5"/>
  <rect x="40" y="64" width="40" height="8" fill="url(#sleeve-gradient)" opacity="0.5"/>
  <rect x="42" y="66" width="36" height="4" fill="#D0D0D0" opacity="0.3"/>
  
  <defs>
    <linearGradient id="cup-gradient" x1="60" y1="52" x2="60" y2="86">
      <stop offset="0%" stop-color="#FFFFFF" stop-opacity="0.8"/>
      <stop offset="100%" stop-color="#F0F0F0"/>
    </linearGradient>
    <linearGradient id="latte-gradient" x1="60" y1="54" x2="60" y2="78">
      <stop offset="0%" stop-color="#F5DBA3"/>
      <stop offset="50%" stop-color="#E8C896"/>
      <stop offset="100%" stop-color="#D4A574"/>
    </linearGradient>
    <radialGradient id="cream-gradient" cx="50%" cy="40%">
      <stop offset="0%" stop-color="#FFFFFF"/>
      <stop offset="70%" stop-color="#FFFEF5"/>
      <stop offset="100%" stop-color="#F5F5E8"/>
    </radialGradient>
    <linearGradient id="straw-gradient" x1="76" y1="26" x2="76" y2="62">
      <stop offset="0%" stop-color="#FF8FB8"/>
      <stop offset="50%" stop-color="#FF6B9D"/>
      <stop offset="100%" stop-color="#E85A8A"/>
    </linearGradient>
    <linearGradient id="straw-bend-gradient" x1="76" y1="26" x2="84" y2="20">
      <stop offset="0%" stop-color="#FF8FB8"/>
      <stop offset="100%" stop-color="#FF6B9D"/>
    </linearGradient>
    <radialGradient id="cherry-gradient" cx="59" cy="35">
      <stop offset="0%" stop-color="#FF5A7A"/>
      <stop offset="60%" stop-color="#DC143C"/>
      <stop offset="100%" stop-color="#B8112A"/>
    </radialGradient>
    <linearGradient id="sleeve-gradient" x1="60" y1="64" x2="60" y2="72">
      <stop offset="0%" stop-color="#F0F0F0"/>
      <stop offset="100%" stop-color="#C0C0C0"/>
    </linearGradient>
  </defs>
</svg>
