<svg width="120" height="120" viewBox="0 0 120 120" fill="none" xmlns="http://www.w3.org/2000/svg">
<path opacity="0.2" d="M60 95C73.8071 95 85 92.7614 85 90C85 87.2386 73.8071 85 60 85C46.1929 85 35 87.2386 35 90C35 92.7614 46.1929 95 60 95Z" fill="black"/>
<path d="M60 85L35 35C35 35 40 30 60 30C80 30 85 35 85 35L60 85Z" fill="#F5DBA3"/>
<path d="M60 85L35 35C35 35 40 30 60 30C80 30 85 35 85 35L60 85Z" fill="url(#paint0_linear_17_368)"/>
<path d="M35 35C35 35 40 30 60 30C80 30 85 35 85 35" stroke="#D4A574" stroke-width="5" stroke-linecap="round"/>
<path d="M35 35C35 35 40 30 60 30C80 30 85 35 85 35" stroke="#E8C896" stroke-width="3" stroke-linecap="round"/>
<path opacity="0.7" d="M60 82L38 38C38 38 42 34 60 34C78 34 82 38 82 38L60 82Z" fill="#D84A3D"/>
<path d="M60 80L40 40C40 40 44 36 60 36C76 36 80 40 80 40L60 80Z" fill="#FFF4B8"/>
<path d="M60 80L40 40C40 40 44 36 60 36C76 36 80 40 80 40L60 80Z" fill="url(#paint1_radial_17_368)"/>
<path opacity="0.6" d="M42 42C42 42 46 40 60 40C74 40 78 42 78 42" stroke="#F5E6A8" stroke-width="1.5" stroke-linecap="round"/>
<path opacity="0.5" d="M44 48C44 48 50 46 60 46C70 46 76 48 76 48" stroke="#F5E6A8" stroke-width="1.5" stroke-linecap="round"/>
<path d="M52 48C54.7614 48 57 45.7614 57 43C57 40.2386 54.7614 38 52 38C49.2386 38 47 40.2386 47 43C47 45.7614 49.2386 48 52 48Z" fill="#C73A2E"/>
<path d="M52 48C54.7614 48 57 45.7614 57 43C57 40.2386 54.7614 38 52 38C49.2386 38 47 40.2386 47 43C47 45.7614 49.2386 48 52 48Z" fill="url(#paint2_radial_17_368)"/>
<path opacity="0.6" d="M52 46.5C53.933 46.5 55.5 44.933 55.5 43C55.5 41.067 53.933 39.5 52 39.5C50.067 39.5 48.5 41.067 48.5 43C48.5 44.933 50.067 46.5 52 46.5Z" fill="#B03228"/>
<path d="M68 52C70.7614 52 73 49.7614 73 47C73 44.2386 70.7614 42 68 42C65.2386 42 63 44.2386 63 47C63 49.7614 65.2386 52 68 52Z" fill="#C73A2E"/>
<path d="M68 52C70.7614 52 73 49.7614 73 47C73 44.2386 70.7614 42 68 42C65.2386 42 63 44.2386 63 47C63 49.7614 65.2386 52 68 52Z" fill="url(#paint3_radial_17_368)"/>
<path opacity="0.6" d="M68 50.5C69.933 50.5 71.5 48.933 71.5 47C71.5 45.067 69.933 43.5 68 43.5C66.067 43.5 64.5 45.067 64.5 47C64.5 48.933 66.067 50.5 68 50.5Z" fill="#B03228"/>
<path d="M58 60.5C60.4853 60.5 62.5 58.4853 62.5 56C62.5 53.5147 60.4853 51.5 58 51.5C55.5147 51.5 53.5 53.5147 53.5 56C53.5 58.4853 55.5147 60.5 58 60.5Z" fill="#C73A2E"/>
<path d="M58 60.5C60.4853 60.5 62.5 58.4853 62.5 56C62.5 53.5147 60.4853 51.5 58 51.5C55.5147 51.5 53.5 53.5147 53.5 56C53.5 58.4853 55.5147 60.5 58 60.5Z" fill="url(#paint4_radial_17_368)"/>
<path opacity="0.6" d="M58 59C59.6569 59 61 57.6569 61 56C61 54.3431 59.6569 53 58 53C56.3431 53 55 54.3431 55 56C55 57.6569 56.3431 59 58 59Z" fill="#B03228"/>
<path d="M64 65C66.2091 65 68 63.2091 68 61C68 58.7909 66.2091 57 64 57C61.7909 57 60 58.7909 60 61C60 63.2091 61.7909 65 64 65Z" fill="#C73A2E"/>
<path d="M64 65C66.2091 65 68 63.2091 68 61C68 58.7909 66.2091 57 64 57C61.7909 57 60 58.7909 60 61C60 63.2091 61.7909 65 64 65Z" fill="url(#paint5_radial_17_368)"/>
<path opacity="0.6" d="M64 63.5C65.3807 63.5 66.5 62.3807 66.5 61C66.5 59.6193 65.3807 58.5 64 58.5C62.6193 58.5 61.5 59.6193 61.5 61C61.5 62.3807 62.6193 63.5 64 63.5Z" fill="#B03228"/>
<path d="M51.5552 56.5435C53.1122 55.9768 53.7618 53.8346 53.0062 51.7587C52.2507 49.6827 50.376 48.4593 48.8191 49.0259C47.2621 49.5926 46.6125 51.7349 47.3681 53.8108C48.1237 55.8867 49.9983 57.1102 51.5552 56.5435Z" fill="#6BA159"/>
<path d="M49.1871 50.7847L50.1871 49.7847L51.1871 50.7847L50.1871 53.7847L49.1871 50.7847Z" fill="#5A8A48"/>
<path d="M60.4148 71.4085C61.7485 71.7659 63.2352 70.542 63.7355 68.6748C64.2358 66.8077 63.5602 65.0044 62.2266 64.647C60.8929 64.2897 59.4062 65.5136 58.9059 67.3807C58.4056 69.2479 59.0812 71.0512 60.4148 71.4085Z" fill="#6BA159"/>
<path d="M60.3207 66.0278L61.3207 65.0278L62.3207 66.0278L61.3207 69.0278L60.3207 66.0278Z" fill="#5A8A48"/>
<path opacity="0.8" d="M54 65C54 65 55 68 57 68" stroke="#FFF4B8" stroke-width="2" stroke-linecap="round"/>
<path opacity="0.7" d="M58 72C58 72 59 74 61 74" stroke="#FFF4B8" stroke-width="1.5" stroke-linecap="round"/>
<defs>
<linearGradient id="paint0_linear_17_368" x1="3035" y1="1680" x2="3035" y2="4705" gradientUnits="userSpaceOnUse">
<stop stop-color="#F5E6C8"/>
<stop offset="1" stop-color="#D4A574"/>
</linearGradient>
<radialGradient id="paint1_radial_17_368" cx="0" cy="0" r="1" gradientUnits="userSpaceOnUse" gradientTransform="translate(2440 2236) scale(20 22)">
<stop stop-color="#FFFEF0"/>
<stop offset="0.5" stop-color="#FFF4B8"/>
<stop offset="1" stop-color="#F5DC82"/>
</radialGradient>
<radialGradient id="paint2_radial_17_368" cx="0" cy="0" r="1" gradientUnits="userSpaceOnUse" gradientTransform="translate(547 338) scale(5)">
<stop stop-color="#E84A3D"/>
<stop offset="0.7" stop-color="#C73A2E"/>
<stop offset="1" stop-color="#A82C22"/>
</radialGradient>
<radialGradient id="paint3_radial_17_368" cx="0" cy="0" r="1" gradientUnits="userSpaceOnUse" gradientTransform="translate(563 342) scale(5)">
<stop stop-color="#E84A3D"/>
<stop offset="0.7" stop-color="#C73A2E"/>
<stop offset="1" stop-color="#A82C22"/>
</radialGradient>
<radialGradient id="paint4_radial_17_368" cx="0" cy="0" r="1" gradientUnits="userSpaceOnUse" gradientTransform="translate(503.5 321.5) scale(4.5)">
<stop stop-color="#E84A3D"/>
<stop offset="0.7" stop-color="#C73A2E"/>
<stop offset="1" stop-color="#A82C22"/>
</radialGradient>
<radialGradient id="paint5_radial_17_368" cx="0" cy="0" r="1" gradientUnits="userSpaceOnUse" gradientTransform="translate(460 297) scale(4)">
<stop stop-color="#E84A3D"/>
<stop offset="0.7" stop-color="#C73A2E"/>
<stop offset="1" stop-color="#A82C22"/>
</radialGradient>
</defs>
</svg>
