<svg width="120" height="120" viewBox="0 0 120 120" fill="none" xmlns="http://www.w3.org/2000/svg">
<path opacity="0.2" d="M60 93C77.6731 93 92 90.7614 92 88C92 85.2386 77.6731 83 60 83C42.3269 83 28 85.2386 28 88C28 90.7614 42.3269 93 60 93Z" fill="black"/>
<path d="M59 78C77.2254 78 92 73.9706 92 69C92 64.0294 77.2254 60 59 60C40.7746 60 26 64.0294 26 69C26 73.9706 40.7746 78 59 78Z" fill="white"/>
<path d="M59 78C77.2254 78 92 73.9706 92 69C92 64.0294 77.2254 60 59 60C40.7746 60 26 64.0294 26 69C26 73.9706 40.7746 78 59 78Z" fill="url(#paint0_linear_17_30)"/>
<path d="M59 73C76.1208 73 90 69.866 90 66C90 62.134 76.1208 59 59 59C41.8792 59 28 62.134 28 66C28 69.866 41.8792 73 59 73Z" fill="#F8F8F8"/>
<path d="M28 66C28 66 34 62 59 62C84 62 90 66 90 66" stroke="#E8E8E8" stroke-width="1.5"/>
<path opacity="0.8" d="M59 72C73.3594 72 85 69.7614 85 67C85 64.2386 73.3594 62 59 62C44.6406 62 33 64.2386 33 67C33 69.7614 44.6406 72 59 72Z" fill="#D84A3D"/>
<path opacity="0.6" d="M33 67C33 67 38.6522 65 59 65C79.3478 65 85 67 85 67" stroke="#C73A2E" stroke-width="1.5"/>
<path d="M70.8948 69.9098C72.0603 69.6454 72.7802 68.4391 72.5026 67.2155C72.225 65.9919 71.0551 65.2143 69.8896 65.4788L62.6538 67.1202C61.4883 67.3847 60.7685 68.5909 61.046 69.8145C61.3236 71.0381 62.4935 71.8157 63.6591 71.5513L70.8948 69.9098Z" fill="url(#paint1_linear_17_30)"/>
<path d="M45.3513 66.9098C46.5169 66.6454 47.2367 65.4391 46.9591 64.2155C46.6816 62.9919 45.5117 62.2143 44.3461 62.4788L37.1104 64.1202C35.9448 64.3847 35.225 65.5909 35.5026 66.8145C35.7802 68.0381 36.95 68.8157 38.1156 68.5513L45.3513 66.9098Z" fill="url(#paint2_linear_17_30)"/>
<path d="M78.0712 70.7537C78.6132 71.0276 79.5114 70.3419 80.0773 69.2221C80.6432 68.1022 80.6625 66.9724 80.1205 66.6985L76.7556 64.998C76.2136 64.7241 75.3154 65.4098 74.7495 66.5297C74.1836 67.6495 74.1643 68.7793 74.7063 69.0532L78.0712 70.7537Z" fill="url(#paint3_linear_17_30)"/>
<path d="M54.5164 63.5159C54.8016 65.7065 57.6967 67.1355 60.9826 66.7077C64.2686 66.2799 66.7012 64.1572 66.416 61.9665C66.1308 59.7759 63.2357 58.3468 59.9498 58.7747C56.6638 59.2025 54.2312 61.3252 54.5164 63.5159Z" fill="url(#paint4_linear_17_30)"/>
<path d="M54 64.7147C54 64.1226 52.6569 64 51 64C49.3431 64 48 64.1226 48 64.7147V68.4666C48 69.0586 49.3431 69.0026 51 69.0026C52.6569 69.0026 54 69.0586 54 68.4666V64.7147Z" fill="url(#paint5_linear_17_30)"/>
<path opacity="0.6" d="M52.5 64.7146H49.5C49.2239 64.7146 49 64.7946 49 64.8933C49 64.9919 49.2239 65.0719 49.5 65.0719H52.5C52.7761 65.0719 53 64.9919 53 64.8933C53 64.7946 52.7761 64.7146 52.5 64.7146Z" fill="#5A8A48"/>
<path opacity="0.4" d="M52.75 66.1439H49.25C49.1119 66.1439 49 66.1839 49 66.2333C49 66.2826 49.1119 66.3226 49.25 66.3226H52.75C52.8881 66.3226 53 66.2826 53 66.2333C53 66.1839 52.8881 66.1439 52.75 66.1439Z" fill="#5A8A48"/>
<path opacity="0.4" d="M52.75 67.5732H49.25C49.1119 67.5732 49 67.6132 49 67.6626C49 67.7119 49.1119 67.7519 49.25 67.7519H52.75C52.8881 67.7519 53 67.7119 53 67.6626C53 67.6132 52.8881 67.5732 52.75 67.5732Z" fill="#5A8A48"/>
<path d="M57.5831 71.6452C58.7782 71.6579 59.7578 70.6512 59.7711 69.3966C59.7845 68.1419 58.8265 67.1146 57.6314 67.1019L50.2122 67.023C49.0171 67.0103 48.0375 68.017 48.0241 69.2716C48.0108 70.5263 48.9688 71.5536 50.1639 71.5663L57.5831 71.6452Z" fill="url(#paint6_linear_17_30)"/>
<defs>
<linearGradient id="paint0_linear_17_30" x1="3986" y1="1248" x2="3986" y2="1572" gradientUnits="userSpaceOnUse">
<stop stop-color="white"/>
<stop offset="1" stop-color="#E0E0E0"/>
</linearGradient>
<linearGradient id="paint1_linear_17_30" x1="-494.281" y1="489.314" x2="-711.956" y2="538.695" gradientUnits="userSpaceOnUse">
<stop stop-color="white"/>
<stop offset="0.5" stop-color="#FFF5E6"/>
<stop offset="1" stop-color="#FFE8CC"/>
</linearGradient>
<linearGradient id="paint2_linear_17_30" x1="-519.824" y1="486.314" x2="-737.499" y2="535.695" gradientUnits="userSpaceOnUse">
<stop stop-color="white"/>
<stop offset="0.5" stop-color="#FFF5E6"/>
<stop offset="1" stop-color="#FFE8CC"/>
</linearGradient>
<linearGradient id="paint3_linear_17_30" x1="-342.056" y1="176.618" x2="-443.284" y2="125.462" gradientUnits="userSpaceOnUse">
<stop stop-color="white"/>
<stop offset="0.5" stop-color="#FFF5E6"/>
<stop offset="1" stop-color="#FFE8CC"/>
</linearGradient>
<linearGradient id="paint4_linear_17_30" x1="65.8995" y1="58" x2="54" y2="59.5493" gradientUnits="userSpaceOnUse">
<stop stop-color="#F5E6C8"/>
<stop offset="1" stop-color="#E8C896"/>
</linearGradient>
<linearGradient id="paint5_linear_17_30" x1="534" y1="354.148" x2="534" y2="424.184" gradientUnits="userSpaceOnUse">
<stop stop-color="#7CB958"/>
<stop offset="1" stop-color="#5A8A48"/>
</linearGradient>
<linearGradient id="paint6_linear_17_30" x1="-589.358" y1="348.758" x2="-812.551" y2="346.384" gradientUnits="userSpaceOnUse">
<stop stop-color="white"/>
<stop offset="0.5" stop-color="#FFF5E6"/>
<stop offset="1" stop-color="#FFE8CC"/>
</linearGradient>
</defs>
</svg>
