<svg width="120" height="120" viewBox="0 0 120 120" fill="none" xmlns="http://www.w3.org/2000/svg">
<path d="M25 76C25 67.7783 28.5821 59.8933 34.9584 54.0797C41.3346 48.2661 49.9826 45 59 45C68.0174 45 76.6654 48.2661 83.0416 54.0797C89.4179 59.8933 93 67.7783 93 76L59 76L25 76Z" fill="url(#paint0_linear_17_557)"/>
<path d="M25 76H96V78H30.1831C27.3063 77.9146 26.2108 77.461 25 76Z" fill="url(#paint1_linear_17_557)"/>
<path d="M36 54C36 54 40 52 46 52C52 52 56 54 56 54L54 56H38L36 54Z" fill="url(#paint2_linear_17_557)"/>
<path d="M51 63C52.6569 63 54 61.6569 54 60C54 58.3431 52.6569 57 51 57C49.3431 57 48 58.3431 48 60C48 61.6569 49.3431 63 51 63Z" fill="#E74C3C"/>
<path d="M51 63C52.6569 63 54 61.6569 54 60C54 58.3431 52.6569 57 51 57C49.3431 57 48 58.3431 48 60C48 61.6569 49.3431 63 51 63Z" fill="url(#paint3_radial_17_557)"/>
<path opacity="0.7" d="M51 59C51 58.4477 50.5523 58 50 58C49.4477 58 49 58.4477 49 59V60C49 60.5523 49.4477 61 50 61C50.5523 61 51 60.5523 51 60V59Z" fill="#F8E8F5"/>
<path d="M43 63.5C44.3807 63.5 45.5 62.3807 45.5 61C45.5 59.6193 44.3807 58.5 43 58.5C41.6193 58.5 40.5 59.6193 40.5 61C40.5 62.3807 41.6193 63.5 43 63.5Z" fill="#E74C3C"/>
<path d="M43 63.5C44.3807 63.5 45.5 62.3807 45.5 61C45.5 59.6193 44.3807 58.5 43 58.5C41.6193 58.5 40.5 59.6193 40.5 61C40.5 62.3807 41.6193 63.5 43 63.5Z" fill="url(#paint4_radial_17_557)"/>
<path opacity="0.6" d="M42.5 59.75C42.5 59.3358 42.1642 59 41.75 59C41.3358 59 41 59.3358 41 59.75V60.75C41 61.1642 41.3358 61.5 41.75 61.5C42.1642 61.5 42.5 61.1642 42.5 60.75V59.75Z" fill="#F8E8F5"/>
<path d="M56.5 78C73.897 78 88 75.3137 88 72C88 68.6863 73.897 66 56.5 66C39.103 66 25 68.6863 25 72C25 75.3137 39.103 78 56.5 78Z" fill="url(#paint5_radial_17_557)"/>
<path d="M60.5 68C77.3447 68 91 65.3137 91 62C91 58.6863 77.3447 56 60.5 56C43.6553 56 30 58.6863 30 62C30 65.3137 43.6553 68 60.5 68Z" fill="url(#paint6_radial_17_557)"/>
<path d="M28 67L30 65L32 67L34 64L36 67L38 65L40 67L42 65L44 67L46 64L48 67L50 65L52 67" stroke="#A0D97C" stroke-width="3" stroke-linecap="round" stroke-linejoin="round"/>
<path d="M43 54L45 52L47 54L49 51L51 54L53 52L55 54L57 52L59 54L61 51L63 54L65 52L67 54" stroke="#A0D97C" stroke-width="3" stroke-linecap="round" stroke-linejoin="round"/>
<path d="M28 71L30 69L32 71L34 68L36 71L38 69L40 71L42 69L44 71L46 68L48 71L50 69L52 71" stroke="#A0D97C" stroke-width="3" stroke-linecap="round" stroke-linejoin="round"/>
<path d="M53 49L55 47L57 49L59 46L61 49L63 47L65 49L67 47L69 49L71 46L73 49L75 47L77 49" stroke="#A0D97C" stroke-width="3" stroke-linecap="round" stroke-linejoin="round"/>
<path d="M35 62C36.6569 62 38 60.6569 38 59C38 57.3431 36.6569 56 35 56C33.3431 56 32 57.3431 32 59C32 60.6569 33.3431 62 35 62Z" fill="#E74C3C"/>
<path d="M35 62C36.6569 62 38 60.6569 38 59C38 57.3431 36.6569 56 35 56C33.3431 56 32 57.3431 32 59C32 60.6569 33.3431 62 35 62Z" fill="url(#paint7_radial_17_557)"/>
<path opacity="0.7" d="M37 58C37 57.4477 36.5523 57 36 57C35.4477 57 35 57.4477 35 58V59C35 59.5523 35.4477 60 36 60C36.5523 60 37 59.5523 37 59V58Z" fill="#F8E8F5"/>
<path d="M30 78.5C30 70.4109 33.5821 62.6531 39.9584 56.9332C46.3346 51.2134 54.9826 48 64 48C73.0174 48 81.6654 51.2134 88.0416 56.9332C94.4179 62.6531 98 70.4109 98 78.5L64 78.5L30 78.5Z" fill="url(#paint8_linear_17_557)"/>
<path opacity="0.25" d="M62 92C81.8823 92 98 89.7614 98 87C98 84.2386 81.8823 82 62 82C42.1177 82 26 84.2386 26 87C26 89.7614 42.1177 92 62 92Z" fill="black"/>
<defs>
<linearGradient id="paint0_linear_17_557" x1="-5891" y1="-1753" x2="-4853.39" y2="-4914.18" gradientUnits="userSpaceOnUse">
<stop stop-color="#FEE3BB"/>
<stop offset="0.5" stop-color="#F5DBA3"/>
<stop offset="1" stop-color="#D4A574"/>
</linearGradient>
<linearGradient id="paint1_linear_17_557" x1="6273" y1="136" x2="6271.85" y2="248.948" gradientUnits="userSpaceOnUse">
<stop stop-color="#FEE3BB"/>
<stop offset="0.5" stop-color="#F5DBA3"/>
<stop offset="1" stop-color="#D4A574"/>
</linearGradient>
<linearGradient id="paint2_linear_17_557" x1="1236" y1="316" x2="1236" y2="332" gradientUnits="userSpaceOnUse">
<stop stop-color="#FFE57F"/>
<stop offset="1" stop-color="#FFC107"/>
</linearGradient>
<radialGradient id="paint3_radial_17_557" cx="0" cy="0" r="1" gradientUnits="userSpaceOnUse" gradientTransform="translate(348 237) scale(3)">
<stop stop-color="#FF6B5B"/>
<stop offset="1" stop-color="#E74C3C"/>
</radialGradient>
<radialGradient id="paint4_radial_17_557" cx="0" cy="0" r="1" gradientUnits="userSpaceOnUse" gradientTransform="translate(290.5 208.5) scale(2.5)">
<stop stop-color="#FF6B5B"/>
<stop offset="1" stop-color="#E74C3C"/>
</radialGradient>
<radialGradient id="paint5_radial_17_557" cx="0" cy="0" r="1" gradientUnits="userSpaceOnUse" gradientTransform="translate(3805 666) scale(31.5 6)">
<stop stop-color="#A0522D"/>
<stop offset="0.7" stop-color="#8B4513"/>
<stop offset="1" stop-color="#6B3410"/>
</radialGradient>
<radialGradient id="paint6_radial_17_557" cx="0" cy="0" r="1" gradientUnits="userSpaceOnUse" gradientTransform="translate(3690 656) scale(30.5 6)">
<stop stop-color="#A0522D"/>
<stop offset="0.7" stop-color="#8B4513"/>
<stop offset="1" stop-color="#6B3410"/>
</radialGradient>
<radialGradient id="paint7_radial_17_557" cx="0" cy="0" r="1" gradientUnits="userSpaceOnUse" gradientTransform="translate(332 236) scale(3)">
<stop stop-color="#FF6B5B"/>
<stop offset="1" stop-color="#E74C3C"/>
</radialGradient>
<linearGradient id="paint8_linear_17_557" x1="-5886" y1="-1721" x2="-4878.46" y2="-4840.9" gradientUnits="userSpaceOnUse">
<stop stop-color="#FFEED4"/>
<stop offset="0.5" stop-color="#F6D792"/>
<stop offset="1" stop-color="#D4A574"/>
</linearGradient>
</defs>
</svg>
